<svg xmlns="http://www.w3.org/2000/svg" viewBox="0 0 130 47.344">
  <defs>
    <style>
      .cls-1 {
        fill: #e5007e;
      }

      .cls-2 {
        fill: #f29100;
      }

      .cls-3 {
        fill: #009ee2;
      }

      .cls-4 {
        fill: #016c44;
      }

      .cls-5 {
        fill: #e10520;
      }

      .cls-6 {
        fill: #e30520;
      }

      .cls-7 {
        fill: #302d80;
      }

      .cls-8 {
        fill: #fff;
      }

      .cls-9 {
        fill: #636362;
      }
    </style>
  </defs>
  <g id="Group_20" data-name="Group 20" transform="translate(-1112 -227)">
    <g id="Group_21" data-name="Group 21">
      <path id="Path_64" data-name="Path 64" class="cls-1" d="M61.556,15.493A15.528,15.528,0,1,1,45.994,0,15.528,15.528,0,0,1,61.556,15.493Z" transform="translate(1101.18 227)"/>
      <rect id="Rectangle_722" data-name="Rectangle 722" class="cls-2" width="32.387" height="33.008" rx="6" transform="translate(1113.989 251.057) rotate(-45.13)"/>
      <path id="Path_65" data-name="Path 65" class="cls-3" d="M6.469,19.916,20.88,5.439A5.966,5.966,0,0,1,25.5,3.691,15.527,15.527,0,1,0,6.077,27.922a5.98,5.98,0,0,1,.392-8.006Z" transform="translate(1111.739 226.903)"/>
      <path id="Path_66" data-name="Path 66" class="cls-4" d="M27.9,5.516a5.966,5.966,0,0,0-4.621,1.747L8.865,21.741a5.98,5.98,0,0,0-.39,8A15.527,15.527,0,1,0,27.9,5.515Z" transform="translate(1109.343 225.078)"/>
      <path id="Path_67" data-name="Path 67" class="cls-5" d="M39.15,42.24Z" transform="translate(1098.16 212.251)"/>
      <path id="Path_68" data-name="Path 68" class="cls-6" d="M42.888,7.252a5.958,5.958,0,0,0-3.806-1.726l-.014.013a15.525,15.525,0,0,1,.054,23.885,15.524,15.524,0,0,0,19.363.346A5.98,5.98,0,0,0,57.8,22.1Z" transform="translate(1098.188 225.07)"/>
      <path id="Path_69" data-name="Path 69" class="cls-7" d="M36.078,5.541A15.629,15.629,0,0,0,33.271,8.61l0,.007c-.075.109-.15.219-.223.331l-.017.025q-.1.16-.206.325l0,.006-.014.023q-.1.166-.2.335l-.005.008-.005.01a15.488,15.488,0,0,0-.758,1.483l-.021.049h0c-.047.107-.092.213-.137.322l-.036.089c-.038.1-.076.191-.113.287l-.026.07-.015.039q-.051.135-.1.273l-.042.119c-.031.09-.061.181-.09.272l-.023.072-.016.048c-.03.094-.058.189-.086.285-.011.036-.022.073-.033.109q-.047.164-.09.33c-.006.023-.012.045-.018.065q-.051.2-.1.406a.213.213,0,0,1-.01.048c-.026.117-.051.235-.075.353l-.008.046-.017.089c-.017.09-.034.18-.049.27,0,.024-.008.048-.012.072l-.015.089c-.013.083-.026.165-.038.248-.007.046-.012.092-.019.139l0,.034c-.011.081-.021.161-.031.242-.007.059-.014.118-.02.176-.008.081-.016.162-.024.243l0,.058c0,.039-.007.079-.01.118-.007.084-.012.168-.018.253v.049c0,.04-.005.08-.007.12-.005.093-.008.186-.012.279,0,.048,0,.1-.005.144,0,.141-.005.283,0,.426s0,.284.007.426v.136c0,.1.007.2.013.288,0,.033,0,.065.006.1l0,.065c.006.087.012.174.019.26l.016.168c.008.085.016.169.025.253l0,.036c0,.044.01.087.015.13.01.085.021.17.033.254.008.053.015.107.023.16.013.088.027.176.042.26.008.049.016.1.024.146.018.1.036.2.055.291l.011.054c0,.02.007.04.012.06.027.13.055.264.086.4v.005q.049.208.1.414l.01.034q.048.182.1.362c.008.031.018.061.027.092.03.1.061.2.093.3.011.035.023.07.034.106.031.1.065.191.1.286l.035.1v.007c.034.1.07.2.105.287l.036.1h0q.059.15.12.3l.012.03.02.048c.048.113.1.224.145.335l.012.027,0,.008a15.454,15.454,0,0,0,.767,1.485l.007.011q.1.172.207.341l.015.024q.1.165.21.325l.014.022q.111.168.226.333h0a15.612,15.612,0,0,0,2.822,3.059,15.525,15.525,0,0,0-.054-23.881Z" transform="translate(1101.178 225.068)"/>
      <path id="Path_70" data-name="Path 70" class="cls-8" d="M8.394,14.6a1.367,1.367,0,0,1,2.733,0L11.12,26.428l7.048.005a1.245,1.245,0,1,1,0,2.49l-8.407,0A1.358,1.358,0,0,1,8.384,27.54Z" transform="translate(1108.903 222.379)"/>
      <path id="Path_71" data-name="Path 71" class="cls-8" d="M26.975,14.676a1.371,1.371,0,0,1,1.38-1.376h.289a1.442,1.442,0,0,1,1.268.734l4.708,7.385,4.74-7.4a1.375,1.375,0,0,1,1.245-.71h.29a1.37,1.37,0,0,1,1.377,1.379l-.008,13.031a1.352,1.352,0,0,1-1.379,1.355,1.375,1.375,0,0,1-1.356-1.356l.006-9.338-3.805,5.711a1.278,1.278,0,0,1-2.29,0l-3.775-5.672-.008,9.314A1.328,1.328,0,0,1,28.3,29.062a1.309,1.309,0,0,1-1.334-1.334Z" transform="translate(1102.414 222.356)"/>
      <path id="Path_72" data-name="Path 72" class="cls-8" d="M53.159,27.163A1.294,1.294,0,0,1,54.717,25.1a6.748,6.748,0,0,0,4.356,1.6c1.692,0,2.757-.8,2.758-1.952V24.7c0-1.112-.62-1.712-3.51-2.381-3.312-.8-5.18-1.783-5.177-4.651v-.044c0-2.668,2.226-4.511,5.316-4.51a8.573,8.573,0,0,1,4.935,1.449,1.237,1.237,0,0,1,.6,1.09A1.271,1.271,0,0,1,62.7,16.922a1.322,1.322,0,0,1-.71-.2,6.479,6.479,0,0,0-3.579-1.182c-1.6,0-2.534.821-2.535,1.844v.045c0,1.2.71,1.734,3.71,2.448,3.289.8,4.978,1.982,4.976,4.562v.045c0,2.912-2.293,4.645-5.562,4.642a9.685,9.685,0,0,1-5.843-1.962Z" transform="translate(1093.454 222.42)"/>
      <g id="Group_20-2" data-name="Group 20" transform="translate(1170.992 233.313)">
        <path id="Path_73" data-name="Path 73" class="cls-9" d="M91.84,11.263a.891.891,0,0,1,1.781,0v7.706h4.593a.811.811,0,1,1,0,1.622H92.738a.884.884,0,0,1-.9-.9Z" transform="translate(-91.231 -9.943)"/>
        <path id="Path_74" data-name="Path 74" class="cls-9" d="M104.439,18.092v-.033a4.079,4.079,0,0,1,8.156-.027v.027a4,4,0,0,1-4.1,3.985,3.956,3.956,0,0,1-4.056-3.952Zm6.4,0v-.033A2.363,2.363,0,0,0,108.5,15.6a2.295,2.295,0,0,0-2.3,2.434v.027a2.356,2.356,0,0,0,2.332,2.448,2.293,2.293,0,0,0,2.318-2.415Z" transform="translate(-95.63 -11.225)"/>
        <path id="Path_75" data-name="Path 75" class="cls-9" d="M119.151,24.054a.746.746,0,0,1-.55-.724.706.706,0,0,1,.71-.725.866.866,0,0,1,.318.06,2,2,0,0,0,.609.1c.521,0,.8-.217,1.086-.81l.057-.159-2.836-6.343a1.215,1.215,0,0,1-.1-.421.841.841,0,0,1,.869-.855.877.877,0,0,1,.854.666l2.057,5.083,1.911-5.083a.9.9,0,0,1,.841-.666.828.828,0,0,1,.841.825,1.545,1.545,0,0,1-.073.421l-2.8,6.7c-.651,1.566-1.347,2.144-2.578,2.144a3.124,3.124,0,0,1-1.218-.215Z" transform="translate(-100.521 -11.263)"/>
        <path id="Path_76" data-name="Path 76" class="cls-9" d="M131.217,19.7v-.029c0-1.651,1.29-2.463,3.158-2.463a6.429,6.429,0,0,1,2.057.318v-.187c0-1.088-.666-1.666-1.9-1.666a4.519,4.519,0,0,0-1.692.3.949.949,0,0,1-.275.042.729.729,0,0,1-.738-.723.765.765,0,0,1,.478-.7,6.564,6.564,0,0,1,2.462-.449,3.431,3.431,0,0,1,2.538.855,3.172,3.172,0,0,1,.825,2.36v3.766a.833.833,0,0,1-.855.84.791.791,0,0,1-.855-.737V20.94a3.108,3.108,0,0,1-2.491,1.116A2.445,2.445,0,0,1,131.217,19.7Zm5.244-.55v-.521a4.881,4.881,0,0,0-1.738-.3c-1.13,0-1.8.479-1.8,1.276v.03c0,.739.651,1.158,1.492,1.158C135.577,20.781,136.461,20.116,136.461,19.145Z" transform="translate(-104.981 -11.25)"/>
        <path id="Path_77" data-name="Path 77" class="cls-9" d="M145.22,10.569a.862.862,0,0,1,.869-.869.875.875,0,0,1,.883.868v8.981a.876.876,0,0,1-1.752,0Z" transform="translate(-109.871 -9.7)"/>
        <path id="Path_78" data-name="Path 78" class="cls-9" d="M151.426,18.674V14.648h-.29a.754.754,0,1,1,0-1.507h.29v-1.3a.876.876,0,1,1,1.752,0v1.3h1.376a.754.754,0,0,1,0,1.507h-1.376V18.4a.834.834,0,0,0,.942.957,4.3,4.3,0,0,0,.434-.042.738.738,0,0,1,.738.724.753.753,0,0,1-.463.681,3.525,3.525,0,0,1-1.2.2A1.96,1.96,0,0,1,151.426,18.674Z" transform="translate(-111.673 -10.141)"/>
        <path id="Path_79" data-name="Path 79" class="cls-9" d="M160.464,24.054a.745.745,0,0,1-.55-.724.706.706,0,0,1,.71-.725.873.873,0,0,1,.319.06,2,2,0,0,0,.608.1c.521,0,.8-.217,1.086-.81l.059-.159-2.839-6.343a1.2,1.2,0,0,1-.1-.421.841.841,0,0,1,.869-.855.877.877,0,0,1,.852.666l2.057,5.083,1.913-5.083a.9.9,0,0,1,.84-.666.828.828,0,0,1,.84.825,1.573,1.573,0,0,1-.072.421l-2.8,6.7c-.651,1.566-1.347,2.144-2.577,2.144a3.108,3.108,0,0,1-1.214-.215Z" transform="translate(-114.946 -11.263)"/>
        <path id="Path_80" data-name="Path 80" class="cls-9" d="M91.84,32.068a.894.894,0,0,1,.9-.9h.189a.937.937,0,0,1,.826.478l3.072,4.808,3.085-4.823a.9.9,0,0,1,.812-.463h.188a.894.894,0,0,1,.9.9v8.487a.881.881,0,0,1-.9.884.9.9,0,0,1-.884-.884V34.471L97.55,38.194a.832.832,0,0,1-1.492,0L93.595,34.5v6.068a.865.865,0,0,1-.883.869.853.853,0,0,1-.869-.869Z" transform="translate(-91.231 -17.197)"/>
        <path id="Path_81" data-name="Path 81" class="cls-9" d="M110.071,40.473v-.03c0-1.651,1.289-2.463,3.157-2.463a6.426,6.426,0,0,1,2.057.319v-.187c0-1.088-.666-1.666-1.9-1.666a4.529,4.529,0,0,0-1.692.3,1.015,1.015,0,0,1-.275.043.729.729,0,0,1-.739-.724.765.765,0,0,1,.478-.7,6.564,6.564,0,0,1,2.461-.448,3.428,3.428,0,0,1,2.538.855,3.173,3.173,0,0,1,.827,2.361v3.767a.834.834,0,0,1-.855.839.791.791,0,0,1-.854-.739v-.29a3.111,3.111,0,0,1-2.493,1.116A2.445,2.445,0,0,1,110.071,40.473Zm5.244-.55V39.4a4.881,4.881,0,0,0-1.74-.3c-1.129,0-1.8.478-1.8,1.275V40.4c0,.738.651,1.159,1.493,1.159C114.43,41.559,115.315,40.893,115.315,39.923Z" transform="translate(-97.597 -18.505)"/>
        <path id="Path_82" data-name="Path 82" class="cls-9" d="M123.915,35.825a.866.866,0,0,1,.87-.882.877.877,0,0,1,.884.882v.781a2.431,2.431,0,0,1,1.926-1.681.862.862,0,0,1,.174,1.708c-1.246.219-2.1,1.175-2.1,2.985v2.259a.875.875,0,0,1-.884.869.862.862,0,0,1-.87-.869Z" transform="translate(-102.431 -18.508)"/>
        <path id="Path_83" data-name="Path 83" class="cls-9" d="M133.109,31.349a.862.862,0,0,1,.869-.869.873.873,0,0,1,.883.869V37l3.289-3.231a1.03,1.03,0,0,1,.754-.376.769.769,0,0,1,.767.8.994.994,0,0,1-.391.738l-2.027,1.869,2.317,3.028a.93.93,0,0,1,.232.578.792.792,0,0,1-.827.8.867.867,0,0,1-.767-.39L136.022,37.9,134.86,39v1.332a.876.876,0,0,1-1.752,0Z" transform="translate(-105.641 -16.956)"/>
        <path id="Path_84" data-name="Path 84" class="cls-9" d="M148.963,42.817a3.816,3.816,0,0,1-3.926-3.97V38.82a3.8,3.8,0,0,1,3.737-3.985,3.618,3.618,0,0,1,3.637,3.766.821.821,0,0,1-.827.845h-4.8a2.135,2.135,0,0,0,2.2,1.941,2.748,2.748,0,0,0,1.811-.667.655.655,0,0,1,.449-.159.69.69,0,0,1,.7.709.765.765,0,0,1-.232.537A3.925,3.925,0,0,1,148.963,42.817Zm1.738-4.534a1.985,1.985,0,0,0-1.941-2.014,2.073,2.073,0,0,0-1.984,2.014Z" transform="translate(-109.805 -18.477)"/>
        <path id="Path_85" data-name="Path 85" class="cls-9" d="M159.128,39.463V35.435h-.29a.753.753,0,1,1,0-1.506h.29v-1.3a.877.877,0,0,1,1.753,0v1.3h1.376a.753.753,0,1,1,0,1.506H160.88v3.751a.834.834,0,0,0,.941.956,4.164,4.164,0,0,0,.435-.043.74.74,0,0,1,.739.726.755.755,0,0,1-.464.68,3.514,3.514,0,0,1-1.2.2A1.959,1.959,0,0,1,159.128,39.463Z" transform="translate(-114.363 -17.407)"/>
        <path id="Path_86" data-name="Path 86" class="cls-9" d="M168.235,31.468a1.011,1.011,0,0,1,2,0v.087a1.009,1.009,0,0,1-2,0Zm.13,2.851a.865.865,0,0,1,.869-.882.877.877,0,0,1,.883.882v6.056a.877.877,0,0,1-1.753,0Z" transform="translate(-117.907 -17.002)"/>
        <path id="Path_87" data-name="Path 87" class="cls-9" d="M174.647,35.8a.865.865,0,0,1,.869-.882.877.877,0,0,1,.884.882v.378a2.769,2.769,0,0,1,2.388-1.333,2.623,2.623,0,0,1,2.724,2.929v4.084a.853.853,0,0,1-.869.869.866.866,0,0,1-.884-.869V38.3c0-1.188-.593-1.87-1.636-1.87a1.7,1.7,0,0,0-1.723,1.9v3.519a.877.877,0,0,1-1.753,0Z" transform="translate(-120.146 -18.479)"/>
        <path id="Path_88" data-name="Path 88" class="cls-9" d="M188.683,44.316a.716.716,0,0,1-.493-.694.739.739,0,0,1,.739-.725.7.7,0,0,1,.319.073,4.674,4.674,0,0,0,2.343.607,2.138,2.138,0,0,0,2.42-2.346v-.593a3.205,3.205,0,0,1-2.694,1.4,3.438,3.438,0,0,1-3.476-3.579v-.03a3.449,3.449,0,0,1,3.476-3.592,3.3,3.3,0,0,1,2.679,1.3v-.361a.877.877,0,0,1,1.754.012v5.288a3.91,3.91,0,0,1-.971,2.882,4.3,4.3,0,0,1-3.143,1.03,6.616,6.616,0,0,1-2.953-.679Zm5.346-5.866v-.03a2.136,2.136,0,0,0-2.246-2.1,2.066,2.066,0,0,0-2.173,2.1v.028a2.083,2.083,0,0,0,2.173,2.1,2.137,2.137,0,0,0,2.246-2.1Z" transform="translate(-124.752 -18.479)"/>
        <path id="Path_89" data-name="Path 89" class="cls-9" d="M91.253,60.966a.842.842,0,0,1,1.012-1.347A4.4,4.4,0,0,0,95.1,60.66c1.1,0,1.8-.521,1.8-1.276v-.03c0-.724-.405-1.115-2.288-1.55-2.16-.521-3.376-1.158-3.376-3.026v-.03c0-1.739,1.448-2.942,3.462-2.942a5.588,5.588,0,0,1,3.216.942.806.806,0,0,1,.39.709.828.828,0,0,1-.841.827.86.86,0,0,1-.463-.13,4.211,4.211,0,0,0-2.332-.769c-1.041,0-1.651.538-1.651,1.2v.029c0,.781.464,1.131,2.42,1.594,2.143.521,3.244,1.288,3.244,2.968v.03c0,1.9-1.492,3.028-3.621,3.028A6.313,6.313,0,0,1,91.253,60.966Z" transform="translate(-90.904 -24.403)"/>
        <path id="Path_90" data-name="Path 90" class="cls-9" d="M109.052,63.6a3.815,3.815,0,0,1-3.926-3.97V59.6a3.8,3.8,0,0,1,3.738-3.985,3.618,3.618,0,0,1,3.635,3.767.82.82,0,0,1-.826.841H106.88a2.133,2.133,0,0,0,2.2,1.939,2.75,2.75,0,0,0,1.811-.666.651.651,0,0,1,.448-.159.691.691,0,0,1,.7.71.763.763,0,0,1-.232.535A3.928,3.928,0,0,1,109.052,63.6Zm1.738-4.532a1.986,1.986,0,0,0-1.941-2.014,2.07,2.07,0,0,0-1.984,2.014Z" transform="translate(-95.869 -25.733)"/>
        <path id="Path_91" data-name="Path 91" class="cls-9" d="M119.219,56.605a.866.866,0,0,1,.869-.883.878.878,0,0,1,.884.883v.781A2.431,2.431,0,0,1,122.9,55.7a.863.863,0,0,1,.174,1.71c-1.245.217-2.1,1.171-2.1,2.984V62.66a.875.875,0,0,1-.884.868.862.862,0,0,1-.869-.868Z" transform="translate(-100.791 -25.764)"/>
        <path id="Path_92" data-name="Path 92" class="cls-9" d="M131.3,63.611h-.087a1.089,1.089,0,0,1-1-.769l-2.551-5.836a1.366,1.366,0,0,1-.1-.435.888.888,0,0,1,1.738-.2l1.969,5.069,2-5.1a.873.873,0,0,1,.826-.608.836.836,0,0,1,.855.84,1.054,1.054,0,0,1-.1.42l-2.55,5.851a1.106,1.106,0,0,1-1,.769Z" transform="translate(-103.706 -25.773)"/>
        <path id="Path_93" data-name="Path 93" class="cls-9" d="M141.411,52.242a1.013,1.013,0,0,1,2,0v.088a1.01,1.01,0,0,1-2,0Zm.13,2.854a.866.866,0,0,1,.869-.883.878.878,0,0,1,.884.883v6.056a.877.877,0,1,1-1.753,0Z" transform="translate(-108.54 -24.258)"/>
        <path id="Path_94" data-name="Path 94" class="cls-9" d="M147.178,59.646v-.029a3.948,3.948,0,0,1,3.983-4,3.873,3.873,0,0,1,2.68.956.836.836,0,0,1,.275.609.8.8,0,0,1-.811.8.9.9,0,0,1-.521-.174,2.426,2.426,0,0,0-1.637-.651,2.307,2.307,0,0,0-2.216,2.434v.029a2.315,2.315,0,0,0,2.289,2.448,2.548,2.548,0,0,0,1.709-.681.74.74,0,0,1,1.231.58.679.679,0,0,1-.246.551,3.741,3.741,0,0,1-2.782,1.086,3.9,3.9,0,0,1-3.955-3.954Z" transform="translate(-110.554 -25.733)"/>
        <path id="Path_95" data-name="Path 95" class="cls-9" d="M163.478,63.6a3.814,3.814,0,0,1-3.926-3.97V59.6a3.8,3.8,0,0,1,3.738-3.985,3.618,3.618,0,0,1,3.635,3.767.821.821,0,0,1-.825.841H161.3a2.133,2.133,0,0,0,2.2,1.939,2.75,2.75,0,0,0,1.811-.666.651.651,0,0,1,.449-.159.691.691,0,0,1,.7.71.76.76,0,0,1-.233.535,3.923,3.923,0,0,1-2.751,1.015Zm1.737-4.532a1.985,1.985,0,0,0-1.941-2.014,2.073,2.073,0,0,0-1.985,2.014Z" transform="translate(-114.873 -25.733)"/>
        <path id="Path_96" data-name="Path 96" class="cls-9" d="M173.021,62.674a.669.669,0,0,1-.333-.608.7.7,0,0,1,.71-.71.743.743,0,0,1,.376.1,4.035,4.035,0,0,0,2.2.738c.755,0,1.19-.318,1.19-.825v-.03c0-.593-.814-.8-1.711-1.071-1.13-.318-2.39-.784-2.39-2.246V58a2.441,2.441,0,0,1,2.724-2.334,5.244,5.244,0,0,1,2.4.625.741.741,0,0,1,.422.665.7.7,0,0,1-.725.709.674.674,0,0,1-.346-.087,4.2,4.2,0,0,0-1.8-.521c-.681,0-1.071.32-1.071.754v.026c0,.566.824.8,1.723,1.086,1.115.348,2.375.856,2.375,2.234v.027c0,1.609-1.246,2.408-2.839,2.408a5.228,5.228,0,0,1-2.911-.914Z" transform="translate(-119.462 -25.749)"/>
      </g>
    </g>
  </g>
</svg>
