<svg xmlns="http://www.w3.org/2000/svg" width="286.075" height="49.292" viewBox="0 0 286.075 49.292">
  <defs>
    <style>
      .cls-1 {
        fill: #fff;
      }
    </style>
  </defs>
  <g id="Grupo_11199" data-name="Grupo 11199" transform="translate(-124 -5)">
    <g id="Grupo_11131" data-name="Grupo 11131" transform="translate(124 5)">
      <g id="Grupo_11130" data-name="Grupo 11130" transform="translate(2.202 19.159)">
        <path id="Trazado_22153" data-name="Trazado 22153" class="cls-1" d="M-10529.725-9174.135l-.029,7.7,11.491-6.94-.027-7.34Z" transform="translate(10550.364 9196.566)"/>
        <path id="Trazado_22154" data-name="Trazado 22154" class="cls-1" d="M-10551.048-9197.622l.9,7.466,11.283-6.373-.909-7.453Z" transform="translate(10557.151 9203.982)"/>
        <path id="Trazado_22155" data-name="Trazado 22155" class="cls-1" d="M-10511.437-9192.25l-6.675,4.1-11.611-6.668,7.04-3.84Z" transform="translate(10550.355 9202.286)"/>
        <path id="Trazado_22156" data-name="Trazado 22156" class="cls-1" d="M-10541.853-9174.218l-6.319,3.711-11.835-7.094,6.638-3.176Z" transform="translate(10560.007 9196.586)"/>
      </g>
      <path id="Trazado_22157" data-name="Trazado 22157" class="cls-1" d="M-10561.788-9223.659l4.769,4.146,3.629-.724-1.139,3.731,4.146,4.87-4.562-.621-1.556,1.555-2.59-4.56-4.147-2.279,2.8-1.144Z" transform="translate(10563.239 9229.413)"/>
      <path id="Trazado_22158" data-name="Trazado 22158" class="cls-1" d="M-10504.6-9207.482l-2.251,1.953-1.711-.342.537,1.761-1.956,2.3,2.341-.623.546,1.063,1.222-2.152,1.956-1.074-1.318-.54Z" transform="translate(10546.265 9224.257)"/>
      <path id="Trazado_22159" data-name="Trazado 22159" class="cls-1" d="M-10536.7-9210.02s.9-3.931-5.4-9.62a15.437,15.437,0,0,1-3.586-4.071c-1.089-1.854-.18-4.33,2.066-3.822C-10538.385-9226.351-10535.79-9215.157-10536.7-9210.02Z" transform="translate(10557.791 9230.669)"/>
      <path id="Trazado_22160" data-name="Trazado 22160" class="cls-1" d="M-10532.294-9232.1l2.207,1.411,2.023-.676-1.106,2.021,1.352,1.661-2.565-.014-.622,1.727-.98-2.267-1.473-.614,1.35-.915Z" transform="translate(10553.748 9232.104)"/>
      <path id="Trazado_22161" data-name="Trazado 22161" class="cls-1" d="M-10531.677-9193.9s-1.2-9.336,7.119-14.822c2.468-1.625,5.27-2.982,5.64-4.57.5-2.143-1.336-3.31-3.932-2.822-2.988.567-5.5,3.4-6.72,5.984A27.284,27.284,0,0,0-10531.677-9193.9Z" transform="translate(10553.308 9227.045)"/>
      <path id="Trazado_22162" data-name="Trazado 22162" class="cls-1" d="M-10529.937-9213.4a9.452,9.452,0,0,1,5.219-6.653c3.814-1.7.895-5.251-2.511-1.571A10.81,10.81,0,0,0-10529.937-9213.4Z" transform="translate(10552.637 9229.277)"/>
    </g>
    <path id="Trazado_22177" data-name="Trazado 22177" class="cls-1" d="M1.7-1.75A1.9,1.9,0,0,0,3.6.15a1.9,1.9,0,0,0,1.9-1.9V-5.3c0-2.7,1.075-4.175,3-4.625A1.748,1.748,0,0,0,9.925-11.7a1.732,1.732,0,0,0-1.85-1.85c-1.125,0-2.025,1.2-2.575,2.5v-.6a1.9,1.9,0,0,0-1.9-1.9,1.9,1.9,0,0,0-1.9,1.9Zm11.9-6c.3-1.725,1.325-2.85,2.9-2.85,1.6,0,2.6,1.15,2.825,2.85Zm7.925,6.425a1.491,1.491,0,0,0,.5-1.125,1.453,1.453,0,0,0-1.475-1.5,1.418,1.418,0,0,0-.925.3,4.386,4.386,0,0,1-2.7.9A3.108,3.108,0,0,1,13.65-5.375h7.525A1.734,1.734,0,0,0,22.95-7.2a6.335,6.335,0,0,0-6.45-6.45A6.672,6.672,0,0,0,9.875-6.675v.05a6.7,6.7,0,0,0,7,6.925A6.943,6.943,0,0,0,21.525-1.325ZM30.925.3a6.591,6.591,0,0,0,4.75-1.725,1.6,1.6,0,0,0,.55-1.2,1.6,1.6,0,0,0-1.6-1.625A1.769,1.769,0,0,0,33.6-3.9a3.85,3.85,0,0,1-2.5.925,3.433,3.433,0,0,1-3.4-3.7v-.05a3.424,3.424,0,0,1,3.25-3.65,3.621,3.621,0,0,1,2.375.85,1.789,1.789,0,0,0,1.1.375,1.707,1.707,0,0,0,1.725-1.7,1.684,1.684,0,0,0-.6-1.3,6.707,6.707,0,0,0-4.575-1.5A6.88,6.88,0,0,0,23.95-6.675v.05A6.842,6.842,0,0,0,30.925.3Zm12.9,0A7.033,7.033,0,0,0,51.1-6.675v-.05a6.965,6.965,0,0,0-7.225-6.925A7.033,7.033,0,0,0,36.6-6.675v.05A6.965,6.965,0,0,0,43.825.3Zm.05-3.275a3.56,3.56,0,0,1-3.525-3.7v-.05a3.433,3.433,0,0,1,3.475-3.65,3.56,3.56,0,0,1,3.525,3.7v.05A3.433,3.433,0,0,1,43.875-2.975ZM52.6-1.75A1.9,1.9,0,0,0,54.5.15a1.9,1.9,0,0,0,1.9-1.9V-7.475c0-1.8.875-2.725,2.3-2.725s2.225.925,2.225,2.725V-1.75a1.9,1.9,0,0,0,1.9,1.9,1.9,1.9,0,0,0,1.9-1.9V-7.475c0-1.8.875-2.725,2.3-2.725s2.225.925,2.225,2.725V-1.75a1.9,1.9,0,0,0,1.9,1.9,1.9,1.9,0,0,0,1.9-1.9V-8.725c0-3.225-1.7-4.925-4.525-4.925a5.518,5.518,0,0,0-4.4,2.125A4.009,4.009,0,0,0,60.35-13.65,4.787,4.787,0,0,0,56.4-11.5v-.15a1.9,1.9,0,0,0-1.9-1.9,1.9,1.9,0,0,0-1.9,1.9Zm22.5,4a1.9,1.9,0,0,0,3.8,0v-4a5.146,5.146,0,0,0,4.175,2c3.175,0,6.1-2.45,6.1-6.925v-.05c0-4.475-2.975-6.925-6.1-6.925A4.921,4.921,0,0,0,78.9-11.475v-.175a1.9,1.9,0,0,0-1.9-1.9,1.9,1.9,0,0,0-1.9,1.9Zm7-5.225a3.4,3.4,0,0,1-3.25-3.7v-.05a3.4,3.4,0,0,1,3.25-3.7,3.417,3.417,0,0,1,3.275,3.7v.05A3.4,3.4,0,0,1,82.1-2.975ZM93.8-7.75c.3-1.725,1.325-2.85,2.9-2.85,1.6,0,2.6,1.15,2.825,2.85Zm7.925,6.425a1.491,1.491,0,0,0,.5-1.125,1.453,1.453,0,0,0-1.475-1.5,1.418,1.418,0,0,0-.925.3,4.386,4.386,0,0,1-2.7.9A3.108,3.108,0,0,1,93.85-5.375h7.525A1.734,1.734,0,0,0,103.15-7.2a6.335,6.335,0,0,0-6.45-6.45,6.672,6.672,0,0,0-6.625,6.975v.05a6.7,6.7,0,0,0,7,6.925A6.943,6.943,0,0,0,101.725-1.325ZM104.8-1.75a1.9,1.9,0,0,0,1.9,1.9,1.9,1.9,0,0,0,1.9-1.9V-7.475c0-1.8.925-2.725,2.375-2.725s2.3.925,2.3,2.725V-1.75a1.9,1.9,0,0,0,1.9,1.9,1.9,1.9,0,0,0,1.9-1.9V-8.675c0-3.075-1.675-4.975-4.55-4.975A4.741,4.741,0,0,0,108.6-11.5v-.15a1.9,1.9,0,0,0-1.9-1.9,1.9,1.9,0,0,0-1.9,1.9Zm19.025,2c2.9,0,5.125-1.35,5.125-4.325v-.05c0-2.45-2.175-3.35-4.05-3.975-1.45-.5-2.725-.85-2.725-1.6v-.05c0-.525.475-.925,1.4-.925a7.145,7.145,0,0,1,2.9.85,1.387,1.387,0,0,0,.7.175,1.494,1.494,0,0,0,1.525-1.5,1.548,1.548,0,0,0-.9-1.425,9.421,9.421,0,0,0-4.15-1.025c-2.7,0-4.9,1.525-4.9,4.25v.05c0,2.6,2.125,3.475,4,4.025,1.475.45,2.775.725,2.775,1.55v.05c0,.6-.5,1-1.6,1a7.057,7.057,0,0,1-3.625-1.2,1.458,1.458,0,0,0-.75-.2,1.473,1.473,0,0,0-1.5,1.5,1.514,1.514,0,0,0,.725,1.3A9.338,9.338,0,0,0,123.825.25Zm10.4,0a5.152,5.152,0,0,0,4.05-1.7v.025A1.7,1.7,0,0,0,140.1.15a1.825,1.825,0,0,0,1.85-1.825v-6.1a5.84,5.84,0,0,0-1.45-4.275,6.186,6.186,0,0,0-4.525-1.5,11.665,11.665,0,0,0-4.275.7,1.575,1.575,0,0,0-1.025,1.475,1.547,1.547,0,0,0,1.575,1.55,1.607,1.607,0,0,0,.55-.1,8.715,8.715,0,0,1,2.625-.375c1.9,0,2.875.875,2.875,2.45v.225a9.522,9.522,0,0,0-3.275-.55c-3.175,0-5.4,1.35-5.4,4.275v.05C129.625-1.2,131.7.25,134.225.25Zm1.15-2.625c-1.225,0-2.075-.6-2.075-1.625v-.05c0-1.2,1-1.85,2.625-1.85a5.892,5.892,0,0,1,2.425.5v.675C138.35-3.35,137.15-2.375,135.375-2.375ZM148.675.25c2.9,0,5.125-1.35,5.125-4.325v-.05c0-2.45-2.175-3.35-4.05-3.975-1.45-.5-2.725-.85-2.725-1.6v-.05c0-.525.475-.925,1.4-.925a7.145,7.145,0,0,1,2.9.85,1.387,1.387,0,0,0,.7.175,1.494,1.494,0,0,0,1.525-1.5,1.548,1.548,0,0,0-.9-1.425A9.421,9.421,0,0,0,148.5-13.6c-2.7,0-4.9,1.525-4.9,4.25v.05c0,2.6,2.125,3.475,4,4.025,1.475.45,2.775.725,2.775,1.55v.05c0,.6-.5,1-1.6,1a7.057,7.057,0,0,1-3.625-1.2,1.458,1.458,0,0,0-.75-.2,1.473,1.473,0,0,0-1.5,1.5,1.514,1.514,0,0,0,.725,1.3A9.338,9.338,0,0,0,148.675.25Zm13.025-2a1.9,1.9,0,0,0,1.9,1.9,1.9,1.9,0,0,0,1.9-1.9V-16.5a1.9,1.9,0,0,0-1.9-1.9,1.9,1.9,0,0,0-1.9,1.9ZM174.4.3a7.033,7.033,0,0,0,7.275-6.975v-.05a6.965,6.965,0,0,0-7.225-6.925,7.033,7.033,0,0,0-7.275,6.975v.05A6.965,6.965,0,0,0,174.4.3Zm.05-3.275a3.56,3.56,0,0,1-3.525-3.7v-.05a3.433,3.433,0,0,1,3.475-3.65,3.56,3.56,0,0,1,3.525,3.7v.05A3.433,3.433,0,0,1,174.45-2.975Zm11.125,7.05c2.275,0,3.4-1.025,4.525-3.75L194.775-10.9a2.871,2.871,0,0,0,.175-.9,1.766,1.766,0,0,0-1.8-1.75,1.927,1.927,0,0,0-1.825,1.45l-2.8,7.775-2.9-7.8A1.838,1.838,0,0,0,183.8-13.55a1.8,1.8,0,0,0-1.875,1.825,2.772,2.772,0,0,0,.2.875L186.7-.25l-.125.3a1.239,1.239,0,0,1-1.35.8,2.486,2.486,0,0,1-.8-.15A1.792,1.792,0,0,0,183.8.6a1.515,1.515,0,0,0-1.5,1.55,1.645,1.645,0,0,0,1.2,1.575A5.717,5.717,0,0,0,185.575,4.075ZM199.75.25a5.152,5.152,0,0,0,4.05-1.7v.025A1.7,1.7,0,0,0,205.625.15a1.825,1.825,0,0,0,1.85-1.825v-6.1a5.84,5.84,0,0,0-1.45-4.275,6.186,6.186,0,0,0-4.525-1.5,11.665,11.665,0,0,0-4.275.7,1.575,1.575,0,0,0-1.025,1.475,1.547,1.547,0,0,0,1.575,1.55,1.607,1.607,0,0,0,.55-.1,8.715,8.715,0,0,1,2.625-.375c1.9,0,2.875.875,2.875,2.45v.225a9.522,9.522,0,0,0-3.275-.55c-3.175,0-5.4,1.35-5.4,4.275v.05C195.15-1.2,197.225.25,199.75.25Zm1.15-2.625c-1.225,0-2.075-.6-2.075-1.625v-.05c0-1.2,1-1.85,2.625-1.85a5.892,5.892,0,0,1,2.425.5v.675C203.875-3.35,202.675-2.375,200.9-2.375Zm8.775.625a1.9,1.9,0,0,0,1.9,1.9,1.9,1.9,0,0,0,1.9-1.9V-16.5a1.9,1.9,0,0,0-1.9-1.9,1.9,1.9,0,0,0-1.9,1.9ZM220.325.225A5.607,5.607,0,0,0,222.5-.15a1.546,1.546,0,0,0,.975-1.425A1.584,1.584,0,0,0,221.9-3.15c-.075,0-.325.025-.45.025-.85,0-1.225-.425-1.225-1.3V-10.15H221.9a1.622,1.622,0,0,0,1.625-1.625A1.622,1.622,0,0,0,221.9-13.4h-1.675v-1.675a1.9,1.9,0,0,0-1.9-1.9,1.9,1.9,0,0,0-1.9,1.9V-13.4H216.3a1.622,1.622,0,0,0-1.625,1.625A1.622,1.622,0,0,0,216.3-10.15h.125V-3.8C216.425-.7,218,.225,220.325.225Zm7.375,3.85c2.275,0,3.4-1.025,4.525-3.75L236.9-10.9a2.871,2.871,0,0,0,.175-.9,1.766,1.766,0,0,0-1.8-1.75,1.927,1.927,0,0,0-1.825,1.45l-2.8,7.775-2.9-7.8a1.838,1.838,0,0,0-1.825-1.425,1.8,1.8,0,0,0-1.875,1.825,2.772,2.772,0,0,0,.2.875l4.575,10.6-.125.3a1.239,1.239,0,0,1-1.35.8,2.486,2.486,0,0,1-.8-.15,1.792,1.792,0,0,0-.625-.1,1.515,1.515,0,0,0-1.5,1.55,1.645,1.645,0,0,0,1.2,1.575A5.717,5.717,0,0,0,227.7,4.075Z" transform="translate(173 41)"/>
  </g>
</svg>
