<svg id="logoJulioBlack" xmlns="http://www.w3.org/2000/svg" viewBox="0 0 176 66.324">
  <defs>
    <style>
      .cls-1 {
        fill: #1d1d1b;
      }

      .cls-2 {
        fill: #fff;
      }
    </style>
  </defs>
  <g id="Capa_1" data-name="Capa 1">
    <path id="Path_52" data-name="Path 52" class="cls-1" d="M113.518,200.521h1.952v7.1h4.42v1.772h-6.372Z" transform="translate(-81.079 -143.22)"/>
    <path id="Path_53" data-name="Path 53" class="cls-1" d="M160.02,204.592v-.024a4.714,4.714,0,0,1,9.424-.025v.025a4.592,4.592,0,0,1-4.726,4.591A4.546,4.546,0,0,1,160.02,204.592Zm7.387,0v-.024a2.694,2.694,0,0,0-2.689-2.787,2.655,2.655,0,0,0-2.66,2.762v.025a2.693,2.693,0,0,0,2.684,2.791A2.657,2.657,0,0,0,167.407,204.592Z" transform="translate(-114.293 -142.835)"/>
    <path id="Path_54" data-name="Path 54" class="cls-1" d="M218.848,205.891l-3.406-5.37h2.28l2.116,3.558,2.149-3.558h2.222l-3.411,5.33v3.539h-1.951Z" transform="translate(-153.878 -143.22)"/>
    <path id="Path_55" data-name="Path 55" class="cls-1" d="M268.839,200.293h1.8l3.8,8.934H272.4l-.806-1.985h-3.758l-.809,1.985h-1.991Zm2.053,5.222-1.179-2.878-1.181,2.878Z" transform="translate(-189.298 -143.058)"/>
    <path id="Path_56" data-name="Path 56" class="cls-1" d="M324.931,200.521h1.946v7.1H331.3v1.772h-6.372Z" transform="translate(-232.079 -143.22)"/>
    <path id="Path_57" data-name="Path 57" class="cls-1" d="M370.635,202.323h-2.7v-1.8h7.347v1.8h-2.7v7.067h-1.947Z" transform="translate(-262.797 -143.22)"/>
    <path id="Path_58" data-name="Path 58" class="cls-1" d="M421.3,205.891l-3.412-5.37h2.276l2.121,3.558,2.155-3.558h2.217l-3.411,5.33v3.539H421.3Z" transform="translate(-298.471 -143.22)"/>
    <path id="Path_59" data-name="Path 59" class="cls-2" d="M0,32.5a11.461,11.461,0,0,0,19.578-8.1V0h-4.47V24.4A7.007,7.007,0,0,1,3.227,29.427Z"/>
    <rect id="Rectangle_721" data-name="Rectangle 721" class="cls-2" width="4.471" height="35.608" transform="translate(111.639)"/>
    <path id="Path_60" data-name="Path 60" class="cls-2" d="M146.153,22.024a9.372,9.372,0,1,1-18.745,0V0h-4.465V22.024a13.834,13.834,0,0,0,27.669,0V0h-4.46Z" transform="translate(-87.812)"/>
    <path id="Path_61" data-name="Path 61" class="cls-2" d="M278.684,0h-4.465V35.657h17.288V31.2H278.684Z" transform="translate(-195.859)"/>
    <path id="Path_62" data-name="Path 62" class="cls-2" d="M595.315,99.4a2.458,2.458,0,1,1,.7,1.79,2.464,2.464,0,0,1-.7-1.79m2.476,3.033a3.02,3.02,0,1,0-2.183-.865,3.029,3.029,0,0,0,2.183.865m-.641-2.8h.611l.918,1.515h.593l-.994-1.54a.908.908,0,0,0,.9-.962c0-.688-.4-.989-1.233-.989H596.62v3.492h.529Zm0-.448V98.108h.718c.374,0,.763.083.763.514,0,.539-.4.572-.849.572Z" transform="translate(-424.762 -68.838)"/>
    <path id="Path_63" data-name="Path 63" class="cls-2" d="M470.384.541a17.834,17.834,0,1,0,17.831,17.834A17.834,17.834,0,0,0,470.384.541m0,31.109a13.276,13.276,0,1,1,13.273-13.274A13.276,13.276,0,0,1,470.384,31.65" transform="translate(-323.228 -0.386)"/>
  </g>
</svg>
